<?xml version="1.0" encoding="UTF-8" standalone="no"?>
<svg
   xmlns:dc="http://purl.org/dc/elements/1.1/"
   xmlns:cc="http://creativecommons.org/ns#"
   xmlns:rdf="http://www.w3.org/1999/02/22-rdf-syntax-ns#"
   xmlns:svg="http://www.w3.org/2000/svg"
   xmlns="http://www.w3.org/2000/svg"
   xmlns:sodipodi="http://sodipodi.sourceforge.net/DTD/sodipodi-0.dtd"
   xmlns:inkscape="http://www.inkscape.org/namespaces/inkscape"
   inkscape:version="1.0 (4035a4f, 2020-05-01)"
   sodipodi:docname="IPhone_6s_Logo.svg"
   id="svg849"
   viewBox="0 0 237.8 57.759998"
   version="1.1"
   width="237.8"
   height="57.759998">
  <metadata
     id="metadata855">
    <rdf:RDF>
      <cc:Work
         rdf:about="">
        <dc:format>image/svg+xml</dc:format>
        <dc:type
           rdf:resource="http://purl.org/dc/dcmitype/StillImage" />
        <dc:title></dc:title>
      </cc:Work>
    </rdf:RDF>
  </metadata>
  <defs
     id="defs853" />
  <sodipodi:namedview
     inkscape:current-layer="svg849"
     inkscape:window-maximized="1"
     inkscape:window-y="25"
     inkscape:window-x="0"
     inkscape:cy="105.56201"
     inkscape:cx="33.981577"
     inkscape:zoom="1.1624381"
     fit-margin-bottom="0"
     fit-margin-right="0"
     fit-margin-left="0"
     fit-margin-top="0"
     showgrid="false"
     id="namedview851"
     inkscape:window-height="790"
     inkscape:window-width="1440"
     inkscape:pageshadow="2"
     inkscape:pageopacity="0"
     guidetolerance="10"
     gridtolerance="10"
     objecttolerance="10"
     borderopacity="1"
     bordercolor="#666666"
     pagecolor="#ffffff" />
  <path
     sodipodi:nodetypes="cccccsssssscccscscscccsssccccscssccssscccccssssssssssssccscssccssccccsccssssccscccscccccsssscccccsscssss"
     id="path847"
     d="M 5.04,56.88 V 18.48 H 1.2 v 38.4 z M 3.04,10.8 C 4.96,10.8 6.16,9.28 6.16,7.52 6.16,5.68 4.88,4.16 3.12,4.16 1.36,4.16 0,5.76 0,7.52 0,9.28 1.2,10.8 2.96,10.8 Z m 9.68,46.08 h 3.84 V 33.84 c 1.92,0.56 4.08,0.64 6.56,0.64 6.64,0 12.4,-2.08 15.84,-6 2.48,-2.72 3.76,-6.16 3.76,-10.8 C 42.72,13.2 41.2,9.6 38.56,7.12 35.6,4.24 30.72,2.56 24.32,2.56 19.76,2.56 15.84,3.04 12.72,3.6 Z M 16.56,6.4 c 1.44,-0.32 4.08,-0.64 7.6,-0.64 8.56,0 14.72,3.84 14.72,12.32 0,8.56 -5.76,13.2 -15.44,13.2 -2.64,0 -5.04,-0.16 -6.88,-0.8 z m 30.48,50.48 h 3.84 V 33.44 c 0,-1.6 0.08,-2.64 0.48,-3.84 1.68,-4.72 6.16,-8.64 11.6,-8.64 7.84,0 10.56,6.32 10.56,13.2 v 22.72 h 3.84 V 33.76 C 77.36,19.44 67.6,17.6 64,17.6 c -2.88,0 -5.52,0.88 -7.76,2.24 -2.24,1.36 -4.08,3.36 -5.2,5.52 H 50.88 V 0 h -3.84 z m 52.16,0.88 c 8.48,0 18.32,-6.16 18.32,-20.4 0,-11.76 -7.2,-19.76 -17.84,-19.76 -9.52,0 -18.16,7.28 -18.16,20.4 0,12 7.68,19.76 17.6,19.76 z m 0.08,-3.2 c -7.84,0 -13.92,-7.2 -13.92,-16.8 0,-8.24 4.4,-16.96 14.24,-16.96 10.16,0 14.08,9.68 14.08,16.72 0,9.84 -6.32,17.04 -14.32,17.04 z m 22.8,2.32 h 3.84 V 33.04 c 0,-1.2 0.24,-2.48 0.48,-3.36 1.52,-5.04 6.16,-8.88 11.52,-8.88 7.92,0 10.64,6.32 10.64,13.36 v 22.72 h 3.84 V 33.84 c 0,-14.4 -9.76,-16.24 -13.44,-16.24 -6.24,0 -11.12,3.44 -13.2,7.76 h -0.16 l -0.24,-6.88 h -3.6 c 0.24,3.04 0.32,5.68 0.32,9.2 z m 66.56,-19.6 c 0.16,-0.72 0.16,-1.28 0.16,-2.32 0,-5.52 -2.4,-17.36 -14.96,-17.36 -9.92,0 -17.28,8 -17.28,20.8 0,11.28 6.88,19.28 17.92,19.28 6.72,0 10.64,-1.68 12.08,-2.48 l -0.96,-2.96 c -2.16,1.04 -5.04,2.16 -10.64,2.16 -7.92,0 -14.64,-4.88 -14.64,-17.12 z m -28.08,-3.04 c 0.72,-5.92 4.32,-13.44 12.8,-13.44 9.28,0 11.52,8.08 11.44,13.44 z M 232.92,4 c -1.36,0 -3.28,0.16 -5.2,0.64 -5.6,1.04 -10.8,3.76 -14.56,7.68 -4.8,5.04 -8.48,13.12 -8.48,23.6 0,14.24 7.52,21.84 16.88,21.84 10.56,0 16.24,-9.04 16.24,-18.08 0,-9.68 -6,-16.72 -15.52,-16.72 -6.32,0 -11.04,3.44 -13.44,7.28 h -0.16 C 209.72,20 216.12,10.4 227.32,8.08 229.48,7.6 231.4,7.52 232.92,7.52 Z M 221.8,54.56 c -8.56,0 -13.28,-7.28 -13.28,-17.76 0,-1.12 0.4,-2.16 0.88,-3.04 2.4,-4.56 7.04,-7.52 11.92,-7.52 7.2,0 12.48,4.64 12.48,13.76 0,8.8 -4.88,14.56 -11.92,14.56 z"
     fill="#231f20" />
</svg>
