<?xml version="1.0" standalone="no"?>
<!DOCTYPE svg PUBLIC "-//W3C//DTD SVG 20010904//EN"
 "http://www.w3.org/TR/2001/REC-SVG-20010904/DTD/svg10.dtd">
<svg version="1.0" xmlns="http://www.w3.org/2000/svg"
 width="155.000000pt" height="24.000000pt" viewBox="0 0 155.000000 24.000000"
 preserveAspectRatio="xMidYMid meet">
<metadata>
Created by potrace 1.16, written by Peter Selinger 2001-2019
</metadata>
<g transform="translate(0.000000,24.000000) scale(0.100000,-0.100000)"
fill="#000000" stroke="none">
<path d="M297 233 c-4 -3 -7 -55 -7 -115 0 -101 1 -108 20 -108 18 0 20 7 21
78 l0 77 34 -73 c29 -62 38 -73 57 -70 17 2 30 21 55 78 l32 75 1 -82 c0 -77
2 -83 20 -83 20 0 21 5 18 113 l-3 112 -26 3 c-23 3 -29 -4 -63 -80 l-37 -83
-36 83 c-29 67 -39 82 -58 82 -12 0 -25 -3 -28 -7z"/>
<path d="M750 127 l0 -114 65 -1 c73 -1 91 9 100 62 13 65 -36 115 -91 96 -16
-6 -20 -2 -24 29 -4 28 -10 37 -27 39 -23 3 -23 2 -23 -111z"/>
<path d="M625 168 c-39 -10 -55 -33 -55 -80 0 -53 27 -78 84 -78 36 0 48 5 65
26 26 34 27 74 1 106 -23 29 -53 38 -95 26z"/>
</g>
</svg>
